<svg width="102" height="102" viewBox="0 0 102 102" fill="none" xmlns="http://www.w3.org/2000/svg">
<circle cx="51" cy="51" r="51" fill="white"/>
<path d="M36.3633 67.0205C45.6759 62.4345 52.0852 63.8585 61.375 70.9453C66.1803 74.6081 75.7888 82.8311 83.9531 89.9209C75.0646 97.4541 63.564 102 51 102C35.9624 102 22.4467 95.4901 13.1123 85.1367C21.8769 77.4768 31.7435 69.2974 36.3633 67.0205ZM63.3945 60.4268C63.486 57.3412 65.1323 53.4933 71.7393 54.0625C76.3689 54.4669 92.2571 57.4075 101.354 59.1309C99.5173 70.5913 93.8613 80.7731 85.7344 88.3369C75.7689 76.9068 63.3411 62.273 63.3945 60.4268ZM9 26.8818C21.0085 33.4057 34.4928 41.1915 37.3096 44.6904C42.6137 51.2696 43.2225 53.3704 36.7295 60.3574L36.7539 60.3447L36.5098 60.6113L36.3115 60.8115L36.0645 61.0703L36.0498 61.0781C31.9925 65.3371 21.6274 75.5557 12.5225 84.4736C4.72323 75.5161 0 63.8098 0 51C0 41.776 2.44854 33.1237 6.73145 25.6582C7.47912 26.0609 8.23731 26.4675 9 26.8818ZM85.0479 13.0332C95.4526 22.3702 102 35.9196 102 51C102 53.5328 101.814 56.0222 101.457 58.4561C93.097 55.873 78.8674 51.1766 72.9678 47.4424L72.7705 47.3145L72.6748 47.252C72.2903 46.9984 71.946 46.7499 71.6465 46.5068L71.5508 46.4219L71.3838 46.2832L71.2686 46.1758L71.0557 45.96L70.873 45.7598L70.7129 45.5596L70.5908 45.3906L70.4385 45.1289L70.3623 44.9824L70.2939 44.8516L70.1641 44.583L70.0117 44.2363L69.9199 44.0283L69.8359 43.8057L69.792 43.6836C69.7523 43.569 69.7146 43.4557 69.6807 43.3428L69.6533 43.2441L69.585 42.9824L69.5264 42.7393C69.5117 42.6718 69.4971 42.6049 69.4844 42.5381L69.4785 42.5049L69.458 42.4043C68.8053 38.602 71.3271 35.7496 73.082 32.5176C74.6413 29.6358 81.4147 18.81 85.0479 13.0332ZM47.8555 0.0957031C50.1854 15.1321 52.8034 33.9742 51.7207 36.542C49.8917 40.8973 47.1478 41.759 35.5947 36.4189C30.199 33.9249 19.6797 29.3881 10 25.2607C9.18751 24.9143 8.38014 24.5726 7.58301 24.2334C16.0502 10.5283 30.8231 1.13175 47.8555 0.0957031ZM51 0C63.9147 0 75.706 4.80297 84.6914 12.7168C78.8627 19.965 65.3083 36.3167 62.29 35.4648C58.419 34.3724 58.1978 35.9031 54.8447 29.001C53.0463 25.3074 50.286 11.8214 48.1064 0.0810547C49.0642 0.0274886 50.0289 0 51 0Z" fill="#2200FF"/>
</svg>
